
        <svg xmlns="http://www.w3.org/2000/svg" xmlns:xlink="http://www.w3.org/1999/xlink" version="1.1" width="3171.4285714285716" 
        height="2554.299420183419" viewBox="0 0 3171.4285714285716 2554.299420183419">
			<rect fill="#0d0d0d" width="3171.4285714285716" height="2554.299420183419"/>
			<g transform="scale(8.571428571428573) translate(10, 10)">
				<defs id="SvgjsDefs12041"><linearGradient id="SvgjsLinearGradient12050"><stop id="SvgjsStop12051" stop-color="#905e26" offset="0"></stop><stop id="SvgjsStop12052" stop-color="#f5ec9b" offset="0.5"></stop><stop id="SvgjsStop12053" stop-color="#905e26" offset="1"></stop></linearGradient><linearGradient id="SvgjsLinearGradient12054"><stop id="SvgjsStop12055" stop-color="#905e26" offset="0"></stop><stop id="SvgjsStop12056" stop-color="#f5ec9b" offset="0.5"></stop><stop id="SvgjsStop12057" stop-color="#905e26" offset="1"></stop></linearGradient><linearGradient id="SvgjsLinearGradient12058"><stop id="SvgjsStop12059" stop-color="#905e26" offset="0"></stop><stop id="SvgjsStop12060" stop-color="#f5ec9b" offset="0.5"></stop><stop id="SvgjsStop12061" stop-color="#905e26" offset="1"></stop></linearGradient></defs><g id="SvgjsG12042" featureKey="symbolContainer" transform="matrix(1,0,0,1,138,0)" fill="#1077f5"><path xmlns="http://www.w3.org/2000/svg" fill-rule="evenodd" d="M5,65 L37,0 L69, 65 L37, 10 z M5,130 L37,210 L69,125 L37, 200 z"></path></g><g id="SvgjsG12043" featureKey="symbolFeature-0" transform="matrix(0.7561279375593798,0,0,0.7561279375593798,137.38073112467478,67.12183701634103)" fill="url(#SvgjsLinearGradient12050)"><path xmlns="http://www.w3.org/2000/svg" d="M97.749,55.738H62.2c-0.049-3.039-1.205-5.808-3.087-7.918c5.195-0.272,6.504-0.725,6.504-0.725  c0.791,0,1.433-0.641,1.433-1.433v-0.851c0-0.791-0.641-1.433-1.433-1.433H51.859V31.69c0-0.792-0.641-1.433-1.433-1.433h-0.852  c-0.791,0-1.433,0.641-1.433,1.433v11.689H34.384c-0.791,0-1.432,0.642-1.432,1.433v0.851c0,0.792,0.641,1.433,1.432,1.433  c0,0,1.309,0.452,6.505,0.725c-1.882,2.111-3.038,4.879-3.087,7.918H2.252c-0.79,0-1.433,0.641-1.433,1.432v0.852  c0,0.791,0.642,1.432,1.433,1.432c0,0,8.42,0.92,22.031,1.561c-0.77,0.924-1.233,2.109-1.233,3.406c0,2.939,2.383,5.322,5.324,5.322  c2.939,0,5.322-2.383,5.322-5.322c0-1.146-0.365-2.207-0.982-3.076c2.064,0.064,4.211,0.121,6.432,0.164  c2.025,3.938,6.124,6.631,10.855,6.631s8.831-2.693,10.856-6.631c2.22-0.043,4.366-0.1,6.431-0.164  c-0.617,0.869-0.983,1.93-0.983,3.076c0,2.939,2.384,5.322,5.323,5.322c2.94,0,5.324-2.383,5.324-5.322  c0-1.297-0.464-2.482-1.233-3.406c13.611-0.641,22.03-1.561,22.03-1.561c0.792,0,1.433-0.641,1.433-1.432V57.17  C99.182,56.379,98.541,55.738,97.749,55.738z M58.708,54.502c0,0.793-0.642,1.434-1.433,1.434H42.727  c-0.792,0-1.433-0.641-1.433-1.434V53.65c0-0.789,0.642-1.432,1.433-1.432h14.549c0.792,0,1.433,0.643,1.433,1.432V54.502z"></path></g><g id="SvgjsG12044" featureKey="nameFeature-0" transform="matrix(0.7522352151785072,0,0,0.7522352151785072,-2.407152545093742,221.27407265174915)" fill="url(#SvgjsLinearGradient12054)"><path d="M12.92 12 c9.2 0 14.4 5.6 14.4 14 s-5.2 14 -14.4 14 l-9.72 0 l0 -28 l9.72 0 z M13.2 35.84 c6.08 0 9.76 -3.68 9.76 -9.84 s-3.68 -9.84 -9.76 -9.84 l-5.68 0 l0 19.68 l5.68 0 z M58.36000000000001 22.2 c0 4.56 -1.96 8.24 -6 9.6 l5.76 8.2 l-5.16 0 l-5.36 -7.6 l-5.64 0 l0 7.6 l-4.32 0 l0 -28 l10.88 0 c6.64 0 9.84 4.36 9.84 10.2 z M41.96000000000001 16.08 l0 12.24 l6.44 0 c4.04 0 5.64 -2.88 5.64 -6.12 s-1.6 -6.12 -5.64 -6.12 l-6.44 0 z M85.48 35.84 l0.28 4.16 l-17.16 0 l0 -28 l16.36 0 l0.32 4.16 l-12.36 0 l0 5.96 l8.16 0 l0 4.16 l-8.16 0 l0 9.56 l12.56 0 z M113.28 40 l-2.2 -5.12 l-11.44 0 l-2.2 5.12 l-4.64 0 l12.32 -28.4 l0.48 0 l12.32 28.4 l-4.64 0 z M101.36000000000001 30.880000000000003 l8 0 l-4 -9.28 z M153.28000000000003 11.600000000000001 l0.48 0 l0 28.4 l-4.28 0 l0 -17.12 l-9.2 11.48 l-0.24 0 l-9.2 -11.48 l0 17.12 l-4.28 0 l0 -28.4 l0.48 0 l13.12 15.88 z M163.6 37.12 c1.68 1.56 5.44 3.28 9.16 3.28 c5.76 0 9.28 -2.84 9.28 -7.48 c0 -3.84 -1.92 -6.12 -7.56 -9.44 c-4.4 -2.6 -5.44 -3.36 -5.44 -4.88 c0 -1.6 1.44 -2.84 4.16 -2.84 c1.52 0 3.76 0.68 5 1.52 l2.32 -3.52 c-1.84 -1.24 -5 -2.16 -7.28 -2.16 c-5.32 0 -8.8 3.04 -8.8 7.04 c0 3.52 1.68 5.28 6.88 8.16 c4.2 2.32 6.12 4.28 6.12 6.04 c0 2.16 -1.72 3.24 -4.68 3.24 c-2.8 0 -5.44 -1.32 -6.68 -2.44 z M208.12 12 l4.72 0 l7.72 18.84 l7.72 -18.84 l4.72 0 l-12.2 28.4 l-0.48 0 z M259.72 40 l-2.2 -5.12 l-11.44 0 l-2.2 5.12 l-4.64 0 l12.32 -28.4 l0.48 0 l12.32 28.4 l-4.64 0 z M247.8 30.880000000000003 l8 0 l-4 -9.28 z M271.88 26 c0 -8.08 6.36 -14.4 14.4 -14.4 c3.32 0 6.48 1.08 9.4 3.2 l-2.2 3.4 c-2.32 -1.72 -4.52 -2.48 -7.2 -2.48 c-5.64 0 -10.04 4.48 -10.04 10.28 s4.4 10.28 10.04 10.28 c3 0 5.36 -0.88 7.2 -2.68 l2.24 3.32 c-2.4 2.2 -5.84 3.48 -9.44 3.48 c-8.04 0 -14.4 -6.36 -14.4 -14.4 z M323.24 40 l-2.2 -5.12 l-11.44 0 l-2.2 5.12 l-4.64 0 l12.32 -28.4 l0.48 0 l12.32 28.4 l-4.64 0 z M311.32 30.880000000000003 l8 0 l-4 -9.28 z M354.24 16.16 l-7.88 0 l0 23.84 l-4.32 0 l0 -23.84 l-7.92 0 l0.28 -4.16 l19.56 0 z M363.28 40 l0 -28 l4.32 0 l0 28 l-4.32 0 z M392.35999999999996 40.4 c-8 0 -14.44 -6.4 -14.44 -14.4 s6.44 -14.4 14.44 -14.4 s14.44 6.4 14.44 14.4 s-6.44 14.4 -14.44 14.4 z M392.35999999999996 36.24 c5.76 0 9.96 -4.36 9.96 -10.24 s-4.2 -10.24 -9.96 -10.24 s-9.96 4.36 -9.96 10.24 s4.2 10.24 9.96 10.24 z M435.87999999999994 12 l4.32 0 l0 28.4 l-0.48 0 l-18.28 -18.36 l0 17.96 l-4.32 0 l0 -28.4 l0.48 0 l18.28 18.36 l0 -17.96 z M450.03999999999996 37.12 c1.68 1.56 5.44 3.28 9.16 3.28 c5.76 0 9.28 -2.84 9.28 -7.48 c0 -3.84 -1.92 -6.12 -7.56 -9.44 c-4.4 -2.6 -5.44 -3.36 -5.44 -4.88 c0 -1.6 1.44 -2.84 4.16 -2.84 c1.52 0 3.76 0.68 5 1.52 l2.32 -3.52 c-1.84 -1.24 -5 -2.16 -7.28 -2.16 c-5.32 0 -8.8 3.04 -8.8 7.04 c0 3.52 1.68 5.28 6.88 8.16 c4.2 2.32 6.12 4.28 6.12 6.04 c0 2.16 -1.72 3.24 -4.68 3.24 c-2.8 0 -5.44 -1.32 -6.68 -2.44 z"></path></g><g id="SvgjsG12045" featureKey="sloganFeature-0" transform="matrix(0.8958956356869772,0,0,0.8958956356869772,43.6024021119983,260.53163412550276)" fill="url(#SvgjsLinearGradient12058)"><path d="M2.18 7.359999999999999 l6.04 0 c0.42 0 0.62 0.34 0.62 0.68 s-0.2 0.66 -0.62 0.66 l-2.28 0 l0 10.06 c0 0.42 -0.34 0.64 -0.68 0.64 s-0.66 -0.22 -0.66 -0.64 l0 -10.06 l-2.42 0 c-0.42 0 -0.62 -0.32 -0.62 -0.66 s0.2 -0.68 0.62 -0.68 z M15.227 15.86 l0 -7.86 c0 -0.42 0.34 -0.64 0.66 -0.64 c0.34 0 0.66 0.22 0.66 0.64 l0 7.86 c0 1.44 0.98 2.3 2.34 2.3 l0.5 0 c1.4 0 2.36 -0.98 2.36 -2.3 l0 -7.86 c0 -0.42 0.32 -0.64 0.66 -0.64 c0.32 0 0.66 0.22 0.66 0.64 l0 7.86 c0 2.06 -1.46 3.64 -3.68 3.64 l-0.5 0 c-2.22 0 -3.66 -1.54 -3.66 -3.64 z M45.761 18.86 l-0.78 -2.54 l-3.72 0 l-0.74 2.5 c-0.26 0.86 -1.58 0.6 -1.3 -0.28 c1.04 -3.5 2.06 -7.06 3.08 -10.6 c0.12 -0.38 0.44 -0.58 0.76 -0.58 c0.3 0 0.62 0.2 0.74 0.58 l3.18 10.6 c0.22 0.76 -0.96 1.18 -1.22 0.32 z M43.101000000000006 10.06 l-1.44 4.92 l2.94 0 c-0.5 -1.68 -0.96 -3.12 -1.5 -4.92 z M53.428 15.879999999999999 l0 -4.82 c0 -2.88 1.58 -3.74 3.9 -3.74 c1.92 0 3.78 0.98 3.78 3 c0 0.44 -0.32 0.66 -0.66 0.66 s-0.68 -0.22 -0.68 -0.66 c0 -1.02 -1.12 -1.7 -2.44 -1.7 c-1.82 0 -2.58 0.74 -2.58 2.44 l0 4.82 c0 1.74 0.96 2.28 2.58 2.28 c1.92 0 2.6 -0.92 2.6 -2.7 l0 -0.84 l-1.8 0 c-0.42 0 -0.64 -0.32 -0.64 -0.66 s0.22 -0.68 0.64 -0.68 l2.5 0 c0.4 0 0.62 0.4 0.62 0.68 l0 1.5 c0 2.88 -1.12 4 -3.92 4 c-2.64 0 -3.9 -0.96 -3.9 -3.58 z M68.175 18.7 l0 -10.64 c0 -0.46 0.36 -0.7 0.7 -0.7 l4.6 0 c0.44 0 0.66 0.32 0.66 0.66 s-0.22 0.68 -0.66 0.68 l-3.96 0 l0 3.88 l3.14 0 c0.46 0 0.68 0.32 0.68 0.66 s-0.24 0.7 -0.68 0.7 l-3.14 0 l0 4.14 l3.96 0 c0.42 0 0.64 0.34 0.64 0.66 c0 0.34 -0.22 0.66 -0.64 0.66 l-4.6 0 c-0.34 0 -0.7 -0.12 -0.7 -0.7 z M87.762 8 l0 10.76 c0 0.42 -0.32 0.64 -0.64 0.64 c-0.24 0 -0.56 -0.18 -0.7 -0.44 c-1.5 -2.94 -2.62 -5.2 -4.12 -8.16 l0 7.96 c0 0.42 -0.32 0.64 -0.66 0.64 c-0.32 0 -0.66 -0.22 -0.66 -0.64 l0 -10.76 c0 -0.7 1 -0.74 1.22 -0.32 l4.22 8.34 l0 -8.02 c0 -0.42 0.32 -0.64 0.66 -0.64 s0.68 0.22 0.68 0.64 z M98.749 7.32 c1.82 0 3.76 0.7 3.76 2.76 c0 0.48 -0.32 0.7 -0.66 0.7 s-0.7 -0.24 -0.7 -0.7 c0 -0.16 -0.1 -1.46 -2.4 -1.46 c-1.82 0 -2.62 0.72 -2.62 2.44 l0 4.82 c0 1.74 0.98 2.28 2.62 2.28 c1.66 0 2.58 -0.68 2.58 -2.3 c0 -0.46 0.34 -0.68 0.66 -0.68 c0.34 0 0.66 0.22 0.66 0.68 c0 2.7 -1.5 3.6 -3.9 3.6 c-2.6 0 -3.92 -0.96 -3.92 -3.58 l0 -4.82 c0 -2.84 1.42 -3.74 3.92 -3.74 z M109.636 18.78 l0 -10.78 c0 -0.42 0.32 -0.64 0.64 -0.64 s0.66 0.22 0.66 0.64 l0 10.78 c0 0.86 -1.3 0.86 -1.3 0 z M124.04299999999999 18.86 l-0.78 -2.54 l-3.72 0 l-0.74 2.5 c-0.26 0.86 -1.58 0.6 -1.3 -0.28 c1.04 -3.5 2.06 -7.06 3.08 -10.6 c0.12 -0.38 0.44 -0.58 0.76 -0.58 c0.3 0 0.62 0.2 0.74 0.58 l3.18 10.6 c0.22 0.76 -0.96 1.18 -1.22 0.32 z M121.38299999999998 10.06 l-1.44 4.92 l2.94 0 c-0.5 -1.68 -0.96 -3.12 -1.5 -4.92 z M141.697 18.78 l0 -10.76 c0 -0.54 0.38 -0.66 0.66 -0.66 l3.2 0 c2.64 0 3.94 1.26 3.94 3.74 l0 5.12 c0 1.56 -1.22 3.2 -3.88 3.2 l-3.26 0 c-0.28 0 -0.66 -0.16 -0.66 -0.64 z M148.177 16.22 l0 -5.12 c0 -1.64 -0.88 -2.4 -2.62 -2.4 l-2.54 0 l0 9.42 l2.6 0 c1.22 0 2.56 -0.66 2.56 -1.9 z M156.504 18.7 l0 -10.64 c0 -0.46 0.36 -0.7 0.7 -0.7 l4.6 0 c0.44 0 0.66 0.32 0.66 0.66 s-0.22 0.68 -0.66 0.68 l-3.96 0 l0 3.88 l3.14 0 c0.46 0 0.68 0.32 0.68 0.66 s-0.24 0.7 -0.68 0.7 l-3.14 0 l0 4.14 l3.96 0 c0.42 0 0.64 0.34 0.64 0.66 c0 0.34 -0.22 0.66 -0.64 0.66 l-4.6 0 c-0.34 0 -0.7 -0.12 -0.7 -0.7 z M182.678 7.32 c1.82 0 3.76 0.7 3.76 2.76 c0 0.48 -0.32 0.7 -0.66 0.7 s-0.7 -0.24 -0.7 -0.7 c0 -0.16 -0.1 -1.46 -2.4 -1.46 c-1.82 0 -2.62 0.72 -2.62 2.44 l0 4.82 c0 1.74 0.98 2.28 2.62 2.28 c1.66 0 2.58 -0.68 2.58 -2.3 c0 -0.46 0.34 -0.68 0.66 -0.68 c0.34 0 0.66 0.22 0.66 0.68 c0 2.7 -1.5 3.6 -3.9 3.6 c-2.6 0 -3.92 -0.96 -3.92 -3.58 l0 -4.82 c0 -2.84 1.42 -3.74 3.92 -3.74 z M193.36499999999998 15.86 l0 -4.96 c0 -2.4 1.24 -3.68 3.64 -3.68 l0.52 0 c2.38 0 3.64 1.28 3.64 3.68 l0 4.96 c0 2.2 -1.46 3.64 -3.64 3.64 l-0.52 0 c-2.22 0 -3.64 -1.46 -3.64 -3.64 z M197.00499999999997 18.16 l0.52 0 c1.44 0 2.3 -0.9 2.3 -2.3 l0 -4.96 c0 -1.56 -0.76 -2.36 -2.3 -2.36 l-0.52 0 c-1.52 0 -2.36 0.82 -2.36 2.36 l0 4.96 c0 1.46 0.92 2.3 2.36 2.3 z M214.99199999999996 8 l0 10.76 c0 0.42 -0.32 0.64 -0.64 0.64 c-0.24 0 -0.56 -0.18 -0.7 -0.44 c-1.5 -2.94 -2.62 -5.2 -4.12 -8.16 l0 7.96 c0 0.42 -0.32 0.64 -0.66 0.64 c-0.32 0 -0.66 -0.22 -0.66 -0.64 l0 -10.76 c0 -0.7 1 -0.74 1.22 -0.32 l4.22 8.34 l0 -8.02 c0 -0.42 0.32 -0.64 0.66 -0.64 s0.68 0.22 0.68 0.64 z M222.33899999999997 18.76 l0 -10.76 c0 -0.48 0.38 -0.64 0.66 -0.64 l4.6 0 c0.44 0 0.66 0.32 0.66 0.66 s-0.22 0.68 -0.66 0.68 l-3.94 0 l0 3.88 l3.14 0 c0.44 0 0.68 0.34 0.68 0.68 s-0.24 0.68 -0.68 0.68 l-3.14 0 l0 4.82 c0 0.42 -0.34 0.64 -0.66 0.64 c-0.34 0 -0.66 -0.22 -0.66 -0.64 z M234.52599999999998 18.78 l0 -10.78 c0 -0.42 0.32 -0.64 0.64 -0.64 s0.66 0.22 0.66 0.64 l0 10.78 c0 0.86 -1.3 0.86 -1.3 0 z M248.933 18.86 l-0.78 -2.54 l-3.72 0 l-0.74 2.5 c-0.26 0.86 -1.58 0.6 -1.3 -0.28 c1.04 -3.5 2.06 -7.06 3.08 -10.6 c0.12 -0.38 0.44 -0.58 0.76 -0.58 c0.3 0 0.62 0.2 0.74 0.58 l3.18 10.6 c0.22 0.76 -0.96 1.18 -1.22 0.32 z M246.273 10.06 l-1.44 4.92 l2.94 0 c-0.5 -1.68 -0.96 -3.12 -1.5 -4.92 z M263.62 8 l0 10.76 c0 0.42 -0.32 0.64 -0.64 0.64 c-0.24 0 -0.56 -0.18 -0.7 -0.44 c-1.5 -2.94 -2.62 -5.2 -4.12 -8.16 l0 7.96 c0 0.42 -0.32 0.64 -0.66 0.64 c-0.32 0 -0.66 -0.22 -0.66 -0.64 l0 -10.76 c0 -0.7 1 -0.74 1.22 -0.32 l4.22 8.34 l0 -8.02 c0 -0.42 0.32 -0.64 0.66 -0.64 s0.68 0.22 0.68 0.64 z M271.56699999999995 7.359999999999999 l5.32 0 c0.66 0 1.18 0.78 0.68 1.64 l-2.4 4.12 c-1.04 1.78 -1.84 3.22 -2.82 4.94 l4.72 0 c0.44 0 0.66 0.34 0.66 0.68 s-0.22 0.66 -0.66 0.66 l-5.46 0 c-0.78 0 -1.06 -0.82 -0.78 -1.32 l5.42 -9.38 l-4.68 0 c-0.44 0 -0.66 -0.34 -0.66 -0.68 c0 -0.32 0.18 -0.66 0.66 -0.66 z M290.87399999999997 18.86 l-0.78 -2.54 l-3.72 0 l-0.74 2.5 c-0.26 0.86 -1.58 0.6 -1.3 -0.28 c1.04 -3.5 2.06 -7.06 3.08 -10.6 c0.12 -0.38 0.44 -0.58 0.76 -0.58 c0.3 0 0.62 0.2 0.74 0.58 l3.18 10.6 c0.22 0.76 -0.96 1.18 -1.22 0.32 z M288.214 10.06 l-1.44 4.92 l2.94 0 c-0.5 -1.68 -0.96 -3.12 -1.5 -4.92 z"></path></g>
			</g>
		</svg>
	